<svg xmlns="http://www.w3.org/2000/svg"  viewBox="0 0 78 80" fill="none">
  <path fill-rule="evenodd" clip-rule="evenodd" d="M35.3364 6.90684C42.1605 7.79987 49.4865 3.84448 55.4752 7.23577C61.6725 10.7452 63.5473 18.3969 66.8079 24.7287C70.8166 32.5131 79.8822 40.2393 76.6641 48.3825C73.3972 56.649 60.1632 54.0079 53.103 59.4079C45.7231 65.0524 44.6195 79.6066 35.3364 79.9919C26.1786 80.372 23.0799 67.2732 16.465 60.9286C11.0902 55.7734 2.03691 53.5837 0.26193 46.3508C-1.50524 39.1497 6.18545 33.2538 7.90346 26.0408C9.86844 17.7909 4.00994 6.26264 10.9658 1.41105C17.9674 -3.47244 26.8722 5.79916 35.3364 6.90684Z" fill="currentColor"/>
</svg>