<svg xmlns="http://www.w3.org/2000/svg"  viewBox="0 0 70 80" fill="none">
  <path fill-rule="evenodd" clip-rule="evenodd" d="M36.9728 0.713014C45.1817 -0.206791 54.4814 -1.12283 60.9146 4.05858C67.2894 9.19308 68.3863 18.4219 69.0855 26.5775C69.6668 33.3571 65.2171 39.1905 64.5068 45.9578C63.4953 55.5954 70.285 66.8753 64.0752 74.3148C58.0549 81.5273 46.2623 80.3484 36.9728 78.9445C28.5815 77.6764 21.0647 73.0993 15.2332 66.9335C10.1079 61.5144 9.1288 53.8986 6.63619 46.8685C4.05445 39.587 -1.56128 32.6016 0.41214 25.1322C2.40784 17.5785 10.1388 13.3594 16.6358 9.02001C22.878 4.85083 29.5131 1.54888 36.9728 0.713014Z" fill="currentColor"/>
</svg>