<svg xmlns="http://www.w3.org/2000/svg"  viewBox="0 0 81 80" fill="none">
  <path fill-rule="evenodd" clip-rule="evenodd" d="M42.9825 6.60791C51.6118 4.35173 61.2839 -3.38164 68.6188 1.69374C75.9044 6.73509 70.6811 18.6868 72.8531 27.277C74.8032 34.9896 82.7184 41.5419 80.6354 49.2197C78.5475 56.9154 68.9922 59.2429 62.8134 64.2825C56.1246 69.738 51.5715 79.0786 42.9825 79.93C34.2803 80.7926 27.2674 73.4924 20.0738 68.5193C12.6838 63.4103 3.2398 59.3418 0.724953 50.716C-1.77646 42.1364 2.61276 32.9286 7.51968 25.4597C11.6331 19.1985 18.9158 16.4758 25.5303 12.9596C31.1338 9.98076 36.8429 8.21315 42.9825 6.60791Z" fill="currentColor"/>
</svg>