<svg xmlns="http://www.w3.org/2000/svg" viewBox="0 0 80 81" fill="none">
  <path fill-rule="evenodd" clip-rule="evenodd" d="M0.241553 38.3272C-0.885075 29.2469 1.9172 18.8985 8.90244 12.9886C15.6155 7.30901 25.8908 11.6892 34.3905 9.43547C42.1392 7.38089 48.5343 -2.23955 56.0751 0.480665C63.6632 3.21796 62.9256 14.4653 67.236 21.2839C71.1237 27.4339 80.0015 31.0515 80 38.3272C79.9985 45.6029 70.694 48.9676 67.229 55.3654C62.8911 63.3749 65.789 76.6755 57.3603 80.1291C49.1278 83.5023 41.7987 72.9416 33.79 69.0669C27.2105 65.8836 20.0593 64.413 14.6702 59.4752C8.22049 53.5654 1.31868 47.0084 0.241553 38.3272Z" fill="currentColor"/>
</svg>