<svg width="809" height="773" viewBox="0 0 809 773" fill="none" xmlns="http://www.w3.org/2000/svg">
<path fill-rule="evenodd" clip-rule="evenodd" d="M406.815 35.5416C493.092 18.8016 601.844 1.42701 662.303 65.2214C724.052 130.376 660.775 240.182 683.152 327.12C703.201 405.016 808.631 462.925 784.406 539.624C760.225 616.184 650.135 616.414 579.645 654.833C521.1 686.741 472.545 734.241 406.815 745.419C331.763 758.183 252.512 757.587 185.262 721.904C112.041 683.054 39.7445 622.852 22.857 541.693C6.33275 462.28 65.3349 390.37 101.131 317.583C131.374 256.089 164.087 198.584 214.45 152.116C270.939 99.9959 331.367 50.1803 406.815 35.5416Z" stroke="white" stroke-width="40"/>
</svg>
